<svg width="11" height="11" viewBox="0 0 11 11" fill="none" xmlns="http://www.w3.org/2000/svg">
<path d="M0.849983 2.90637L0.853695 2.89C0.923546 2.58187 1.07062 2.31031 1.3364 2.10886L1.33665 2.10867L1.33665 2.10867C1.55986 1.94023 1.81416 1.84994 2.0975 1.84994L3.37363 1.84994L4.64975 1.84994C4.78376 1.84994 4.9086 1.8887 5.00242 1.97096C5.09793 2.0547 5.14864 2.17275 5.14997 2.30365L5.14998 2.30371C5.15127 2.43614 5.10481 2.55795 5.00921 2.64576C4.91682 2.73061 4.79259 2.77098 4.65798 2.77344C4.6546 2.77376 4.65215 2.77389 4.65172 2.77392L4.64457 2.77422L4.63172 2.7745L4.59713 2.77493L4.56281 2.77518L4.55076 2.77519L4.54538 2.77514L4.53891 2.77489L4.53408 2.77453C4.53303 2.77443 4.52992 2.77415 4.52573 2.77354C4.2992 2.77357 4.07206 2.77436 3.84456 2.77515C3.2841 2.7771 2.7215 2.77905 2.16066 2.76977L0.849983 2.90637ZM0.849983 2.90637L0.849983 2.92316M0.849983 2.90637L0.849983 2.92316M8.37547 5.99994C8.37422 6.05369 8.37464 6.10828 8.37506 6.16258C8.37527 6.18963 8.37547 6.21661 8.37547 6.24338L8.37547 8.8726C8.37547 9.11417 8.25935 9.28833 8.05333 9.35949C7.96905 9.38758 7.8829 9.3932 7.79487 9.3932L4.01161 9.3932L2.17617 9.3932C2.03757 9.3932 1.90459 9.37447 1.79035 9.28084C1.64801 9.16286 1.60493 9.00743 1.60493 8.8314C1.60493 8.36089 1.60505 7.89039 1.60516 7.41988C1.60552 6.00837 1.60587 4.59685 1.60306 3.18533L8.07768 9.99994C8.09141 9.9959 8.10514 9.99152 8.11902 9.98708C8.13733 9.98123 8.1559 9.9753 8.17507 9.96998C8.65266 9.84451 8.99728 9.4063 8.99915 8.91005C9.00037 8.17981 9 7.64415 8.9996 7.05015C8.99938 6.73018 8.99915 6.39329 8.99915 5.99994C8.99915 5.79582 8.87554 5.66099 8.69387 5.65911C8.5047 5.65724 8.37922 5.79207 8.37547 5.99994ZM8.37547 5.99994L8.2255 5.99724C8.2255 5.99697 8.22551 5.99671 8.22551 5.99645M8.37547 5.99994L8.22551 5.99645M8.22551 5.99645C8.22806 5.8636 8.26999 5.74014 8.35547 5.64854C8.44242 5.55536 8.56287 5.50781 8.69535 5.50912L8.69541 5.50912C8.82491 5.51046 8.94222 5.56028 9.02604 5.65324C9.10881 5.74503 9.14915 5.86777 9.14915 5.99994C9.14915 6.39309 9.14938 6.72991 9.1496 7.04986C9.15 7.64397 9.15037 8.17991 9.14915 8.9103L9.14915 8.91062C9.14702 9.47535 8.75615 9.97186 8.21432 10.1148C8.20069 10.1186 8.18689 10.1229 8.17124 10.1279C8.16917 10.1285 8.16706 10.1292 8.1649 10.1299C8.15112 10.1343 8.13555 10.1393 8.12 10.1438L8.09928 10.1499L8.07768 10.1499L8.22551 5.99645ZM8.22551 5.99645C8.22421 6.05245 8.22466 6.1113 8.22508 6.16697C8.22528 6.19337 8.22547 6.21906 8.22547 6.24338L8.22547 6.24941L8.22547 6.25543L8.22547 6.26144L8.22547 6.26744L8.22547 6.27343L8.22547 6.27941L8.22547 6.28537L8.22547 6.29133L8.22547 6.29728L8.22547 6.30321L8.22547 6.30914L8.22547 6.31506L8.22547 6.32096L8.22547 6.32686L8.22547 6.33275L8.22547 6.33862L8.22547 6.34449L8.22547 6.35035L8.22547 6.35619L8.22547 6.36203L8.22547 6.36786L8.22547 6.37367L8.22547 6.37948L8.22547 6.38528L8.22547 6.39107L8.22547 6.39685L8.22547 6.40262L8.22547 6.40838L8.22547 6.41413L8.22547 6.41987L8.22547 6.42561L8.22547 6.43133L8.22547 6.43704L8.22547 6.44275L8.22547 6.44844L8.22547 6.45413L8.22547 6.45981L8.22547 6.46548L8.22547 6.47114L8.22547 6.47679L8.22547 6.48243L8.22547 6.48806L8.22547 6.49368L8.22547 6.4993L8.22547 6.50491L8.22547 6.5105L8.22547 6.51609L8.22547 6.52167L8.22547 6.52725L8.22547 6.53281L8.22547 6.53836L8.22547 6.54391L8.22547 6.54945L8.22547 6.55498L8.22547 6.5605L8.22547 6.56601L8.22547 6.57152L8.22547 6.57702L8.22547 6.5825L8.22547 6.58798L8.22547 6.59346L8.22547 6.59892L8.22547 6.60438L8.22547 6.60983L8.22547 6.61527L8.22547 6.6207L8.22547 6.62612L8.22547 6.63154L8.22547 6.63695L8.22547 6.64235L8.22547 6.64775L8.22547 6.65313L8.22547 6.65851L8.22547 6.66388L8.22547 6.66925L8.22547 6.6746L8.22547 6.67995L8.22547 6.68529L8.22547 6.69063L8.22547 6.69595L8.22547 6.70127L8.22547 6.70659L8.22547 6.71189L8.22547 6.71719L8.22547 6.72248L8.22547 6.72776L8.22547 6.73304L8.22547 6.73831L8.22547 6.74357L8.22547 6.74883L8.22547 6.75408L8.22547 6.75932L8.22547 6.76456L8.22547 6.76979L8.22547 6.77501L8.22547 6.78023L8.22547 6.78543L8.22547 6.79064L8.22547 6.79583L8.22547 6.80102L8.22547 6.80621L8.22547 6.81138L8.22547 6.81655L8.22547 6.82172L8.22547 6.82688L8.22547 6.83203L8.22547 6.83717L8.22547 6.84231L8.22547 6.84745L8.22547 6.85257L8.22547 6.85769L8.22547 6.86281L8.22547 6.86792L8.22547 6.87302L8.22547 6.87812L8.22547 6.88321L8.22547 6.8883L8.22547 6.89338L8.22547 6.89845L8.22547 6.90352L8.22547 6.90859L8.22547 6.91364L8.22547 6.9187L8.22547 6.92374L8.22547 6.92878L8.22547 6.93382L8.22547 6.93885L8.22547 6.94388L8.22547 6.9489L8.22547 6.95391L8.22547 6.95892L8.22547 6.96393L8.22547 6.96892L8.22547 6.97392L8.22547 6.97891L8.22547 6.98389L8.22547 6.98887L8.22547 6.99385L8.22547 6.99882L8.22547 7.00378L8.22547 7.00874L8.22547 7.0137L8.22547 7.01865L8.22547 7.02359L8.22547 7.02853L8.22547 7.03347L8.22547 7.0384L8.22547 7.04333L8.22547 7.04825L8.22547 7.05317L8.22547 7.05809L8.22547 7.063L8.22547 7.0679L8.22547 7.07281L8.22547 7.0777L8.22547 7.0826L8.22547 7.08749L8.22547 7.09237L8.22547 7.09725L8.22547 7.10213L8.22547 7.107L8.22547 7.11187L8.22547 7.11674L8.22547 7.1216L8.22547 7.12646L8.22547 7.13131L8.22547 7.13616L8.22547 7.14101L8.22547 7.14585L8.22547 7.15069L8.22547 7.15552L8.22547 7.16036L8.22547 7.16519L8.22547 7.17001L8.22547 7.17483L8.22547 7.17965L8.22547 7.18447L8.22547 7.18928L8.22547 7.19409L8.22547 7.19889L8.22547 7.2037L8.22547 7.2085L8.22547 7.21329L8.22547 7.21809L8.22547 7.22288L8.22547 7.22767L8.22547 7.23245L8.22547 7.23723L8.22547 7.24201L8.22547 7.24679L8.22547 7.25156L8.22547 7.25633L8.22547 7.2611L8.22547 7.26587L8.22547 7.27063L8.22547 7.27539L8.22547 7.28015L8.22547 7.2849L8.22547 7.28966L8.22547 7.29441L8.22547 7.29916L8.22547 7.3039L8.22547 7.30865L8.22547 7.31339L8.22547 7.31813L8.22547 7.32287L8.22547 7.3276L8.22547 7.33234L8.22547 7.33707L8.22547 7.3418L8.22547 7.34653L8.22547 7.35125L8.22547 7.35598L8.22547 7.3607L8.22547 7.36542L8.22547 7.37014L8.22547 7.37486L8.22547 7.37957L8.22547 7.38429L8.22547 7.389L8.22547 7.39371L8.22547 7.39842L8.22547 7.40313L8.22547 7.40784L8.22547 7.41254L8.22547 7.41725L8.22547 7.42195L8.22547 7.42665L8.22547 7.43135L8.22547 7.43605L8.22547 7.44075L8.22547 7.44545L8.22547 7.45015L8.22547 7.45484L8.22547 7.45954L8.22547 7.46423L8.22547 7.46892L8.22547 7.47362L8.22547 7.47831L8.22547 7.483L8.22547 7.48769L8.22547 7.49238L8.22547 7.49707L8.22547 7.50176L8.22547 7.50644L8.22547 7.51113L8.22547 7.51582L8.22547 7.52051L8.22547 7.52519L8.22547 7.52988L8.22547 7.53456L8.22547 7.53925L8.22547 7.54394L8.22547 7.54862L8.22547 7.55331L8.22547 7.55799L8.22547 7.56268L8.22547 7.56736L8.22547 7.57205L8.22547 7.57673L8.22547 7.58142L8.22547 7.5861L8.22547 7.59079L8.22547 7.59548L8.22547 7.60016L8.22547 7.60485L8.22547 7.60954L8.22547 7.61423L8.22547 7.61892L8.22547 7.6236L8.22547 7.62829L8.22547 7.63298L8.22547 7.63768L8.22547 7.64237L8.22547 7.64706L8.22547 7.65175L8.22547 7.65645L8.22547 7.66114L8.22547 7.66584L8.22547 7.67053L8.22547 7.67523L8.22547 7.67993L8.22547 7.68463L8.22547 7.68933L8.22547 7.69403L8.22547 7.69874L8.22547 7.70344L8.22547 7.70815L8.22547 7.71285L8.22547 7.71756L8.22547 7.72227L8.22547 7.72698L8.22547 7.7317L8.22547 7.73641L8.22547 7.74113L8.22547 7.74584L8.22547 7.75056L8.22547 7.75528L8.22547 7.76L8.22547 7.76473L8.22547 7.76946L8.22547 7.77418L8.22547 7.77891L8.22547 7.78365L8.22547 7.78838L8.22547 7.79311L8.22547 7.79785L8.22547 7.80259L8.22547 7.80733L8.22547 7.81208L8.22547 7.81682L8.22547 7.82157L8.22547 7.82632L8.22547 7.83108L8.22547 7.83583L8.22547 7.84059L8.22547 7.84535L8.22547 7.85012L8.22547 7.85488L8.22547 7.85965L8.22547 7.86442L8.22547 7.86919L8.22547 7.87397L8.22547 7.87875L8.22547 7.88353L8.22547 7.88832L8.22547 7.8931L8.22547 7.8979L8.22547 7.90269L8.22547 7.90749L8.22547 7.91228L8.22547 7.91709L8.22547 7.92189L8.22547 7.9267L8.22547 7.93151L8.22547 7.93633L8.22547 7.94115L8.22547 7.94597L8.22547 7.9508L8.22547 7.95563L8.22547 7.96046L8.22547 7.96529L8.22547 7.97013L8.22547 7.97498L8.22547 7.97982L8.22547 7.98467L8.22547 7.98953L8.22547 7.99438L8.22547 7.99925L8.22547 8.00411L8.22547 8.00898L8.22547 8.01385L8.22547 8.01873L8.22547 8.02361L8.22547 8.0285L8.22547 8.03339L8.22547 8.03828L8.22547 8.04318L8.22547 8.04808L8.22547 8.05298L8.22547 8.05789L8.22547 8.06281L8.22547 8.06773L8.22547 8.07265L8.22547 8.07758L8.22547 8.08251L8.22547 8.08745L8.22547 8.09239L8.22547 8.09734L8.22547 8.10229L8.22547 8.10724L8.22547 8.1122L8.22547 8.11717L8.22547 8.12214L8.22547 8.12711L8.22547 8.13209L8.22547 8.13707L8.22547 8.14206L8.22547 8.14706L8.22547 8.15206L8.22547 8.15706L8.22547 8.16207L8.22547 8.16709L8.22547 8.17211L8.22547 8.17713L8.22547 8.18216L8.22547 8.1872L8.22547 8.19224L8.22547 8.19729L8.22547 8.20234L8.22547 8.2074L8.22547 8.21246L8.22547 8.21753L8.22547 8.2226L8.22547 8.22768L8.22547 8.23277L8.22547 8.23786L8.22547 8.24296L8.22547 8.24806L8.22547 8.25317L8.22547 8.25829L8.22547 8.26341L8.22547 8.26854L8.22547 8.27367L8.22547 8.27881L8.22547 8.28395L8.22547 8.28911L8.22547 8.29426L8.22547 8.29943L8.22547 8.3046L8.22547 8.30978L8.22547 8.31496L8.22547 8.32015L8.22547 8.32535L8.22547 8.33055L8.22547 8.33576L8.22547 8.34097L8.22547 8.3462L8.22547 8.35142L8.22547 8.35666L8.22547 8.3619L8.22547 8.36715L8.22547 8.37241L8.22547 8.37767L8.22547 8.38294L8.22547 8.38822L8.22547 8.3935L8.22547 8.39879L8.22547 8.40409L8.22547 8.4094L8.22547 8.41471L8.22547 8.42003L8.22547 8.42536L8.22547 8.43069L8.22547 8.43603L8.22547 8.44138L8.22547 8.44674L8.22547 8.4521L8.22547 8.45747L8.22547 8.46285L8.22547 8.46824L8.22547 8.47363L8.22547 8.47903L8.22547 8.48444L8.22547 8.48986L8.22547 8.49528L8.22547 8.50072L8.22547 8.50616L8.22547 8.5116L8.22547 8.51706L8.22547 8.52253L8.22547 8.528L8.22547 8.53348L8.22547 8.53897L8.22547 8.54446L8.22547 8.54997L8.22547 8.55548L8.22547 8.561L8.22547 8.56653L8.22547 8.57207L8.22547 8.57762L8.22547 8.58317L8.22547 8.58874L8.22547 8.59431L8.22547 8.59989L8.22547 8.60548L8.22547 8.61108L8.22547 8.61668L8.22547 8.6223L8.22547 8.62792L8.22547 8.63355L8.22547 8.6392L8.22547 8.64485L8.22547 8.65051L8.22547 8.65617L8.22547 8.66185L8.22547 8.66754L8.22547 8.67323L8.22547 8.67894L8.22547 8.68465L8.22547 8.69038L8.22547 8.69611L8.22547 8.70185L8.22547 8.7076L8.22547 8.71336L8.22547 8.71913L8.22547 8.72491L8.22547 8.7307L8.22547 8.7365L8.22547 8.74231L8.22547 8.74813L8.22547 8.75395L8.22547 8.75979L8.22547 8.76564L8.22547 8.77149L8.22547 8.77736L8.22547 8.78324L8.22547 8.78912L8.22547 8.79502L8.22547 8.80093L8.22547 8.80684L8.22547 8.81277L8.22547 8.81871L8.22547 8.82465L8.22547 8.83061L8.22547 8.83658L8.22547 8.84255L8.22547 8.84854L8.22547 8.85454L8.22547 8.86055L8.22547 8.86657L8.22547 8.8726C8.22547 9.05831 8.14261 9.16964 8.00515 9.21744C7.94412 9.23764 7.8774 9.2432 7.79487 9.2432L7.78749 9.2432L7.7801 9.2432L7.77272 9.2432L7.76533 9.2432L7.75795 9.2432L7.75056 9.2432L7.74317 9.2432L7.73579 9.2432L7.7284 9.2432L7.72102 9.2432L7.71363 9.2432L7.70624 9.2432L7.69886 9.2432L7.69147 9.2432L7.68409 9.2432L7.6767 9.2432L7.66931 9.2432L7.66193 9.2432L7.65454 9.2432L7.64715 9.2432L7.63977 9.2432L7.63238 9.2432L7.625 9.2432L7.61761 9.2432L7.61022 9.2432L7.60284 9.2432L7.59545 9.2432L7.58806 9.2432L7.58068 9.2432L7.57329 9.2432L7.5659 9.2432L7.55852 9.2432L7.55113 9.2432L7.54374 9.2432L7.53636 9.2432L7.52897 9.2432L7.52158 9.2432L7.51419 9.2432L7.50681 9.2432L7.49942 9.2432L7.49203 9.2432L7.48465 9.2432L7.47726 9.2432L7.46987 9.2432L7.46248 9.2432L7.4551 9.2432L7.44771 9.2432L7.44032 9.2432L7.43293 9.2432L7.42555 9.2432L7.41816 9.2432L7.41077 9.2432L7.40338 9.2432L7.396 9.2432L7.38861 9.2432L7.38122 9.2432L7.37383 9.2432L7.36645 9.2432L7.35906 9.2432L7.35167 9.2432L7.34428 9.2432L7.3369 9.2432L7.32951 9.2432L7.32212 9.2432L7.31473 9.2432L7.30734 9.2432L7.29996 9.2432L7.29257 9.2432L7.28518 9.2432L7.27779 9.2432L7.2704 9.2432L7.26301 9.2432L7.25563 9.2432L7.24824 9.2432L7.24085 9.2432L7.23346 9.2432L7.22607 9.2432L7.21869 9.2432L7.2113 9.2432L7.20391 9.2432L7.19652 9.2432L7.18913 9.2432L7.18174 9.2432L7.17435 9.2432L7.16697 9.2432L7.15958 9.2432L7.15219 9.2432L7.1448 9.2432L7.13741 9.2432L7.13002 9.2432L7.12263 9.2432L7.11525 9.2432L7.10786 9.2432L7.10047 9.2432L7.09308 9.2432L7.08569 9.2432L7.0783 9.2432L7.07091 9.2432L7.06352 9.2432L7.05613 9.2432L7.04875 9.2432L7.04136 9.2432L7.03397 9.2432L7.02658 9.2432L7.01919 9.2432L7.0118 9.2432L7.00441 9.2432L6.99702 9.2432L6.98963 9.2432L6.98224 9.2432L6.97485 9.2432L6.96746 9.2432L6.96008 9.2432L6.95269 9.2432L6.9453 9.2432L6.93791 9.2432L6.93052 9.2432L6.92313 9.2432L6.91574 9.2432L6.90835 9.2432L6.90096 9.2432L6.89357 9.2432L6.88618 9.2432L6.87879 9.2432L6.8714 9.2432L6.86401 9.2432L6.85662 9.2432L6.84923 9.2432L6.84184 9.2432L6.83445 9.2432L6.82706 9.2432L6.81967 9.2432L6.81228 9.2432L6.8049 9.2432L6.79751 9.2432L6.79012 9.2432L6.78273 9.2432L6.77534 9.2432L6.76795 9.2432L6.76056 9.2432L6.75317 9.2432L6.74578 9.2432L6.73839 9.2432L6.731 9.2432L6.72361 9.2432L6.71622 9.2432L6.70883 9.2432L6.70144 9.2432L6.69405 9.2432L6.68666 9.2432L6.67927 9.2432L6.67188 9.2432L6.66449 9.2432L6.6571 9.2432L6.64971 9.2432L6.64232 9.2432L6.63493 9.2432L6.62754 9.2432L6.62014 9.2432L6.61275 9.2432L6.60536 9.2432L6.59797 9.2432L6.59058 9.2432L6.58319 9.2432L6.5758 9.2432L6.56841 9.2432L6.56102 9.2432L6.55363 9.2432L6.54624 9.2432L6.53885 9.2432L6.53146 9.2432L6.52407 9.2432L6.51668 9.2432L6.50929 9.2432L6.5019 9.2432L6.49451 9.2432L6.48712 9.2432L6.47973 9.2432L6.47234 9.2432L6.46495 9.2432L6.45756 9.2432L6.45017 9.2432L6.44278 9.2432L6.43538 9.2432L6.42799 9.2432L6.4206 9.2432L6.41321 9.2432L6.40582 9.2432L6.39843 9.2432L6.39104 9.2432L6.38365 9.2432L6.37626 9.2432L6.36887 9.2432L6.36148 9.2432L6.35409 9.2432L6.3467 9.2432L6.33931 9.2432L6.33192 9.2432L6.32452 9.2432L6.31713 9.2432L6.30974 9.2432L6.30235 9.2432L6.29496 9.2432L6.28757 9.2432L6.28018 9.2432L6.27279 9.2432L6.2654 9.2432L6.25801 9.2432L6.25062 9.2432L6.24323 9.2432L6.23584 9.2432L6.22844 9.2432L6.22105 9.2432L6.21366 9.2432L6.20627 9.2432L6.19888 9.2432L6.19149 9.2432L6.1841 9.2432L6.17671 9.2432L6.16932 9.2432L6.16193 9.2432L6.15454 9.2432L6.14714 9.2432L6.13975 9.2432L6.13236 9.2432L6.12497 9.2432L6.11758 9.2432L6.11019 9.2432L6.1028 9.2432L6.09541 9.2432L6.08802 9.2432L6.08063 9.2432L6.07324 9.2432L6.06584 9.2432L6.05845 9.2432L6.05106 9.2432L6.04367 9.2432L6.03628 9.2432L6.02889 9.2432L6.0215 9.2432L6.01411 9.2432L6.00672 9.2432L5.99933 9.2432L5.99193 9.2432L5.98454 9.2432L5.97715 9.2432L5.96976 9.2432L5.96237 9.2432L5.95498 9.2432L5.94759 9.2432L5.9402 9.2432L5.93281 9.2432L5.92542 9.2432L5.91802 9.2432L5.91063 9.2432L5.90324 9.2432L5.89585 9.2432L5.88846 9.2432L5.88107 9.2432L5.87368 9.2432L5.86629 9.2432L5.8589 9.2432L5.8515 9.2432L5.84411 9.2432L5.83672 9.2432L5.82933 9.2432L5.82194 9.2432L5.81455 9.2432L5.80716 9.2432L5.79977 9.2432L5.79238 9.2432L5.78499 9.2432L5.7776 9.2432L5.7702 9.2432L5.76281 9.2432L5.75542 9.2432L5.74803 9.2432L5.74064 9.2432L5.73325 9.2432L5.72586 9.2432L5.71847 9.2432L5.71108 9.2432L5.70369 9.2432L5.69629 9.2432L5.6889 9.2432L5.68151 9.2432L5.67412 9.2432L5.66673 9.2432L5.65934 9.2432L5.65195 9.2432L5.64456 9.2432L5.63717 9.2432L5.62978 9.2432L5.62239 9.2432L5.61499 9.2432L5.6076 9.2432L5.60021 9.2432L5.59282 9.2432L5.58543 9.2432L5.57804 9.2432L5.57065 9.2432L5.56326 9.2432L5.55587 9.2432L5.54848 9.2432L5.54109 9.2432L5.53369 9.2432L5.5263 9.2432L5.51891 9.2432L5.51152 9.2432L5.50413 9.2432L5.49674 9.2432L5.48935 9.2432L5.48196 9.2432L5.47457 9.2432L5.46718 9.2432L5.45979 9.2432L5.4524 9.2432L5.44501 9.2432L5.43762 9.2432L5.43022 9.2432L5.42283 9.2432L5.41544 9.2432L5.40805 9.2432L5.40066 9.2432L5.39327 9.2432L5.38588 9.2432L5.37849 9.2432L5.3711 9.2432L5.36371 9.2432L5.35632 9.2432L5.34893 9.2432L5.34154 9.2432L5.33415 9.2432L5.32676 9.2432L5.31937 9.2432L5.31198 9.2432L5.30458 9.2432L5.29719 9.2432L5.2898 9.2432L5.28241 9.2432L5.27502 9.2432L5.26763 9.2432L5.26024 9.2432L5.25285 9.2432L5.24546 9.2432L5.23807 9.2432L5.23068 9.2432L5.22329 9.2432L5.2159 9.2432L5.20851 9.2432L5.20112 9.2432L5.19373 9.2432L5.18634 9.2432L5.17895 9.2432L5.17156 9.2432L5.16417 9.2432L5.15678 9.2432L5.14939 9.2432L5.142 9.2432L5.13461 9.2432L5.12722 9.2432L5.11983 9.2432L5.11244 9.2432L5.10505 9.2432L5.09766 9.2432L5.09027 9.2432L5.08288 9.2432L5.07549 9.2432L5.0681 9.2432L5.06071 9.2432L5.05332 9.2432L5.04593 9.2432L5.03854 9.2432L5.03115 9.2432L5.02376 9.2432L5.01637 9.2432L5.00898 9.2432L5.00159 9.2432L4.9942 9.2432L4.98681 9.2432L4.97942 9.2432L4.97203 9.2432L4.96464 9.2432L4.95725 9.2432L4.94986 9.2432L4.94247 9.2432L4.93508 9.2432L4.92769 9.2432L4.9203 9.2432L4.91291 9.2432L4.90552 9.2432L4.89813 9.2432L4.89074 9.2432L4.88336 9.2432L4.87597 9.2432L4.86858 9.2432L4.86119 9.2432L4.8538 9.2432L4.84641 9.2432L4.83902 9.2432L4.83163 9.2432L4.82424 9.2432L4.81685 9.2432L4.80946 9.2432L4.80207 9.2432L4.79468 9.2432L4.7873 9.2432L4.77991 9.2432L4.77252 9.2432L4.76513 9.2432L4.75774 9.2432L4.75035 9.2432L4.74296 9.2432L4.73557 9.2432L4.72818 9.2432L4.72079 9.2432L4.71341 9.2432L4.70602 9.2432L4.69863 9.2432L4.69124 9.2432L4.68385 9.2432L4.67646 9.2432L4.66907 9.2432L4.66168 9.2432L4.6543 9.2432L4.64691 9.2432L4.63952 9.2432L4.63213 9.2432L4.62474 9.2432L4.61735 9.2432L4.60996 9.2432L4.60258 9.2432L4.59519 9.2432L4.5878 9.2432L4.58041 9.2432L4.57302 9.2432L4.56563 9.2432L4.55825 9.2432L4.55086 9.2432L4.54347 9.2432L4.53608 9.2432L4.52869 9.2432L4.5213 9.2432L4.51392 9.2432L4.50653 9.2432L4.49914 9.2432L4.49175 9.2432L4.48436 9.2432L4.47698 9.2432L4.46959 9.2432L4.4622 9.2432L4.45481 9.2432L4.44743 9.2432L4.44004 9.2432L4.43265 9.2432L4.42526 9.2432L4.41787 9.2432L4.41049 9.2432L4.4031 9.2432L4.39571 9.2432L4.38832 9.2432L4.38094 9.2432L4.37355 9.2432L4.36616 9.2432L4.35877 9.2432L4.35139 9.2432L4.344 9.2432L4.33661 9.2432L4.32923 9.2432L4.32184 9.2432L4.31445 9.2432L4.30706 9.2432L4.29968 9.2432L4.29229 9.2432L4.2849 9.2432L4.27752 9.2432L4.27013 9.2432L4.26274 9.2432L4.25536 9.2432L4.24797 9.2432L4.24058 9.2432L4.23319 9.2432L4.22581 9.2432L4.21842 9.2432L4.21103 9.2432L4.20365 9.2432L4.19626 9.2432L4.18888 9.2432L4.18149 9.2432L4.1741 9.2432L4.16672 9.2432L4.15933 9.2432L4.15194 9.2432L4.14456 9.2432L4.13717 9.2432L4.12978 9.2432L4.1224 9.2432L4.11501 9.2432L4.10763 9.2432L4.10024 9.2432L4.09285 9.2432L4.08547 9.2432L4.07808 9.2432L4.0707 9.2432L4.06331 9.2432L4.05592 9.2432L4.04854 9.2432L4.04115 9.2432L4.03377 9.2432L4.02638 9.2432L4.019 9.2432L4.01161 9.2432L4.00802 9.2432L4.00443 9.2432L4.00085 9.2432L3.99726 9.2432L3.99367 9.2432L3.99008 9.2432L3.98649 9.2432L3.9829 9.2432L3.97932 9.2432L3.97573 9.2432L3.97214 9.2432L3.96855 9.2432L3.96496 9.2432L3.96138 9.2432L3.95779 9.2432L3.9542 9.2432L3.95061 9.2432L3.94702 9.2432L3.94344 9.2432L3.93985 9.2432L3.93626 9.2432L3.93267 9.2432L3.92909 9.2432L3.9255 9.2432L3.92191 9.2432L3.91832 9.2432L3.91474 9.2432L3.91115 9.2432L3.90756 9.2432L3.90397 9.2432L3.90039 9.2432L3.8968 9.2432L3.89321 9.2432L3.88962 9.2432L3.88604 9.2432L3.88245 9.2432L3.87886 9.2432L3.87528 9.2432L3.87169 9.2432L3.8681 9.2432L3.86452 9.2432L3.86093 9.2432L3.85734 9.2432L3.85376 9.2432L3.85017 9.2432L3.84658 9.2432L3.84299 9.2432L3.83941 9.2432L3.83582 9.2432L3.83224 9.2432L3.82865 9.2432L3.82506 9.2432L3.82148 9.2432L3.81789 9.2432L3.8143 9.2432L3.81072 9.2432L3.80713 9.2432L3.80354 9.2432L3.79996 9.2432L3.79637 9.2432L3.79278 9.2432L3.7892 9.2432L3.78561 9.2432L3.78203 9.2432L3.77844 9.2432L3.77485 9.2432L3.77127 9.2432L3.76768 9.2432L3.7641 9.2432L3.76051 9.2432L3.75692 9.2432L3.75334 9.2432L3.74975 9.2432L3.74617 9.2432L3.74258 9.2432L3.739 9.2432L3.73541 9.2432L3.73182 9.2432L3.72824 9.2432L3.72465 9.2432L3.72107 9.2432L3.71748 9.2432L3.7139 9.2432L3.71031 9.2432L3.70672 9.2432L3.70314 9.2432L3.69955 9.2432L3.69597 9.2432L3.69238 9.2432L3.6888 9.2432L3.68521 9.2432L3.68163 9.2432L3.67804 9.2432L3.67446 9.2432L3.67087 9.2432L3.66729 9.2432L3.6637 9.2432L3.66012 9.2432L3.65653 9.2432L3.65295 9.2432L3.64936 9.2432L3.64578 9.2432L3.64219 9.2432L3.63861 9.2432L3.63502 9.2432L3.63144 9.2432L3.62785 9.2432L3.62427 9.2432L3.62068 9.2432L3.6171 9.2432L3.61351 9.2432L3.60993 9.2432L3.60634 9.2432L3.60276 9.2432L3.59917 9.2432L3.59559 9.2432L3.592 9.2432L3.58842 9.2432L3.58483 9.2432L3.58125 9.2432L3.57767 9.2432L3.57408 9.2432L3.5705 9.2432L3.56691 9.2432L3.56333 9.2432L3.55974 9.2432L3.55616 9.2432L3.55257 9.2432L3.54899 9.2432L3.5454 9.2432L3.54182 9.2432L3.53824 9.2432L3.53465 9.2432L3.53107 9.2432L3.52748 9.2432L3.5239 9.2432L3.52031 9.2432L3.51673 9.2432L3.51315 9.2432L3.50956 9.2432L3.50598 9.2432L3.50239 9.2432L3.49881 9.2432L3.49523 9.2432L3.49164 9.2432L3.48806 9.2432L3.48447 9.2432L3.48089 9.2432L3.47731 9.2432L3.47372 9.2432L3.47014 9.2432L3.46655 9.2432L3.46297 9.2432L3.45939 9.2432L3.4558 9.2432L3.45222 9.2432L3.44863 9.2432L3.44505 9.2432L3.44147 9.2432L3.43788 9.2432L3.4343 9.2432L3.43072 9.2432L3.42713 9.2432L3.42355 9.2432L3.41996 9.2432L3.41638 9.2432L3.4128 9.2432L3.40921 9.2432L3.40563 9.2432L3.40205 9.2432L3.39846 9.2432L3.39488 9.2432L3.3913 9.2432L3.38771 9.2432L3.38413 9.2432L3.38054 9.2432L3.37696 9.2432L3.37338 9.2432L3.36979 9.2432L3.36621 9.2432L3.36263 9.2432L3.35904 9.2432L3.35546 9.2432L3.35188 9.2432L3.34829 9.2432L3.34471 9.2432L3.34113 9.2432L3.33754 9.2432L3.33396 9.2432L3.33038 9.2432L3.32679 9.2432L3.32321 9.2432L3.31963 9.2432L3.31604 9.2432L3.31246 9.2432L3.30888 9.2432L3.30529 9.2432L3.30171 9.2432L3.29813 9.2432L3.29454 9.2432L3.29096 9.2432L3.28738 9.2432L3.28379 9.2432L3.28021 9.2432L3.27663 9.2432L3.27304 9.2432L3.26946 9.2432L3.26588 9.2432L3.26229 9.2432L3.25871 9.2432L3.25513 9.2432L3.25154 9.2432L3.24796 9.2432L3.24438 9.2432L3.24079 9.2432L3.23721 9.2432L3.23363 9.2432L3.23004 9.2432L3.22646 9.2432L3.22288 9.2432L3.2193 9.2432L3.21571 9.2432L3.21213 9.2432L3.20855 9.2432L3.20496 9.2432L3.20138 9.2432L3.1978 9.2432L3.19421 9.2432L3.19063 9.2432L3.18705 9.2432L3.18346 9.2432L3.17988 9.2432L3.1763 9.2432L3.17271 9.2432L3.16913 9.2432L3.16555 9.2432L3.16197 9.2432L3.15838 9.2432L3.1548 9.2432L3.15122 9.2432L3.14763 9.2432L3.14405 9.2432L3.14047 9.2432L3.13688 9.2432L3.1333 9.2432L3.12972 9.2432L3.12614 9.2432L3.12255 9.2432L3.11897 9.2432L3.11539 9.2432L3.1118 9.2432L3.10822 9.2432L3.10464 9.2432L3.10105 9.2432L3.09747 9.2432L3.09389 9.2432L3.09031 9.2432L3.08672 9.2432L3.08314 9.2432L3.07956 9.2432L3.07597 9.2432L3.07239 9.2432L3.06881 9.2432L3.06522 9.2432L3.06164 9.2432L3.05806 9.2432L3.05447 9.2432L3.05089 9.2432L3.04731 9.2432L3.04373 9.2432L3.04014 9.2432L3.03656 9.2432L3.03298 9.2432L3.02939 9.2432L3.02581 9.2432L3.02223 9.2432L3.01864 9.2432L3.01506 9.2432L3.01148 9.2432L3.0079 9.2432L3.00431 9.2432L3.00073 9.2432L2.99715 9.2432L2.99356 9.2432L2.98998 9.2432L2.9864 9.2432L2.98281 9.2432L2.97923 9.2432L2.97565 9.2432L2.97206 9.2432L2.96848 9.2432L2.9649 9.2432L2.96131 9.2432L2.95773 9.2432L2.95415 9.2432L2.95057 9.2432L2.94698 9.2432L2.9434 9.2432L2.93982 9.2432L2.93623 9.2432L2.93265 9.2432L2.92907 9.2432L2.92548 9.2432L2.9219 9.2432L2.91832 9.2432L2.91473 9.2432L2.91115 9.2432L2.90757 9.2432L2.90398 9.2432L2.9004 9.2432L2.89682 9.2432L2.89323 9.2432L2.88965 9.2432L2.88607 9.2432L2.88248 9.2432L2.8789 9.2432L2.87532 9.2432L2.87173 9.2432L2.86815 9.2432L2.86457 9.2432L2.86098 9.2432L2.8574 9.2432L2.85382 9.2432L2.85023 9.2432L2.84665 9.2432L2.84307 9.2432L2.83948 9.2432L2.8359 9.2432L2.83232 9.2432L2.82873 9.2432L2.82515 9.2432L2.82157 9.2432L2.81798 9.2432L2.8144 9.2432L2.81082 9.2432L2.80723 9.2432L2.80365 9.2432L2.80006 9.2432L2.79648 9.2432L2.7929 9.2432L2.78931 9.2432L2.78573 9.2432L2.78215 9.2432L2.77856 9.2432L2.77498 9.2432L2.7714 9.2432L2.76781 9.2432L2.76423 9.2432L2.76064 9.2432L2.75706 9.2432L2.75348 9.2432L2.74989 9.2432L2.74631 9.2432L2.74273 9.2432L2.73914 9.2432L2.73556 9.2432L2.73197 9.2432L2.72839 9.2432L2.72481 9.2432L2.72122 9.2432L2.71764 9.2432L2.71405 9.2432L2.71047 9.2432L2.70689 9.2432L2.7033 9.2432L2.69972 9.2432L2.69613 9.2432L2.69255 9.2432L2.68897 9.2432L2.68538 9.2432L2.6818 9.2432L2.67821 9.2432L2.67463 9.2432L2.67105 9.2432L2.66746 9.2432L2.66388 9.2432L2.66029 9.2432L2.65671 9.2432L2.65312 9.2432L2.64954 9.2432L2.64596 9.2432L2.64237 9.2432L2.63879 9.2432L2.6352 9.2432L2.63162 9.2432L2.62803 9.2432L2.62445 9.2432L2.62086 9.2432L2.61728 9.2432L2.6137 9.2432L2.61011 9.2432L2.60653 9.2432L2.60294 9.2432L2.59936 9.2432L2.59577 9.2432L2.59219 9.2432L2.5886 9.2432L2.58502 9.2432L2.58143 9.2432L2.57785 9.2432L2.57426 9.2432L2.57068 9.2432L2.5671 9.2432L2.56351 9.2432L2.55993 9.2432L2.55634 9.2432L2.55276 9.2432L2.54917 9.2432L2.54559 9.2432L2.542 9.2432L2.53842 9.2432L2.53483 9.2432L2.53125 9.2432L2.52766 9.2432L2.52408 9.2432L2.52049 9.2432L2.5169 9.2432L2.51332 9.2432L2.50973 9.2432L2.50615 9.2432L2.50256 9.2432L2.49898 9.2432L2.49539 9.2432L2.49181 9.2432L2.48822 9.2432L2.48464 9.2432L2.48105 9.2432L2.47747 9.2432L2.47388 9.2432L2.47029 9.2432L2.46671 9.2432L2.46312 9.2432L2.45954 9.2432L2.45595 9.2432L2.45237 9.2432L2.44878 9.2432L2.4452 9.2432L2.44161 9.2432L2.43802 9.2432L2.43444 9.2432L2.43085 9.2432L2.42727 9.2432L2.42368 9.2432L2.42009 9.2432L2.41651 9.2432L2.41292 9.2432L2.40934 9.2432L2.40575 9.2432L2.40216 9.2432L2.39858 9.2432L2.39499 9.2432L2.39141 9.2432L2.38782 9.2432L2.38423 9.2432L2.38065 9.2432L2.37706 9.2432L2.37347 9.2432L2.36989 9.2432L2.3663 9.2432L2.36271 9.2432L2.35913 9.2432L2.35554 9.2432L2.35195 9.2432L2.34837 9.2432L2.34478 9.2432L2.34119 9.2432L2.33761 9.2432L2.33402 9.2432L2.33043 9.2432L2.32685 9.2432L2.32326 9.2432L2.31967 9.2432L2.31609 9.2432L2.3125 9.2432L2.30891 9.2432L2.30533 9.2432L2.30174 9.2432L2.29815 9.2432L2.29456 9.2432L2.29098 9.2432L2.28739 9.2432L2.2838 9.2432L2.28022 9.2432L2.27663 9.2432L2.27304 9.2432L2.26945 9.2432L2.26587 9.2432L2.26228 9.2432L2.25869 9.2432L2.2551 9.2432L2.25152 9.2432L2.24793 9.2432L2.24434 9.2432L2.24075 9.2432L2.23716 9.2432L2.23358 9.2432L2.22999 9.2432L2.2264 9.2432L2.22281 9.2432L2.21922 9.2432L2.21564 9.2432L2.21205 9.2432L2.20846 9.2432L2.20487 9.2432L2.20128 9.2432L2.1977 9.2432L2.19411 9.2432L2.19052 9.2432L2.18693 9.2432L2.18334 9.2432L2.17975 9.2432L2.17617 9.2432C2.04938 9.2432 1.95951 9.22538 1.88573 9.16507C1.79021 9.08572 1.75493 8.98129 1.75493 8.8314C1.75493 8.36097 1.75505 7.89051 1.75516 7.42003C1.75552 6.00848 1.75587 4.59673 1.75306 3.18503L1.75306 3.18448C1.7523 3.05043 1.79402 2.94752 1.85874 2.87981C1.92234 2.81327 2.02063 2.76756 2.16057 2.76977L8.22551 5.99645ZM0.849983 2.92316L0.999983 2.92316L0.849983 2.92316ZM0.849983 9.08421L0.849983 9.10036L0.853422 9.11614L0.999983 9.08421L0.849983 9.08421Z" fill="white" stroke="white" stroke-width="0.3"/>
<path d="M10.4479 1.73359L10.447 1.73332C10.3613 2.00006 10.1946 2.18436 10.0088 2.35078L10.0087 2.35085C8.87364 3.3629 7.74104 4.37856 6.60836 5.39427L6.60828 5.39434L6.60826 5.39437C6.52227 5.47136 6.42948 5.51799 6.3161 5.52825M10.4479 1.73359L6.31159 5.47846M10.4479 1.73359L10.449 1.7241L10.4491 1.72346L10.4492 1.72282L10.4493 1.72218L10.4493 1.72154L10.4494 1.72091L10.4495 1.72027L10.4496 1.71963L10.4497 1.71899L10.4497 1.71835L10.4498 1.71771L10.4499 1.71707L10.45 1.71644L10.45 1.7158L10.4501 1.71516L10.4502 1.71452L10.4503 1.71388L10.4504 1.71324L10.4504 1.71261L10.4505 1.71197L10.4506 1.71133L10.4507 1.71069L10.4507 1.71005L10.4508 1.70942L10.4509 1.70878L10.451 1.70814L10.4511 1.7075L10.4511 1.70686L10.4512 1.70623L10.4513 1.70559L10.4514 1.70495L10.4514 1.70431L10.4515 1.70367L10.4516 1.70304L10.4517 1.7024L10.4518 1.70176L10.4518 1.70112L10.4519 1.70049L10.452 1.69985L10.4521 1.69921L10.4522 1.69857L10.4522 1.69794L10.4523 1.6973L10.4524 1.69666L10.4525 1.69602L10.4525 1.69539L10.4526 1.69475L10.4527 1.69411L10.4528 1.69348L10.4529 1.69284L10.4529 1.6922L10.453 1.69156L10.4531 1.69093L10.4532 1.69029L10.4532 1.68965L10.4533 1.68902L10.4534 1.68838L10.4535 1.68774L10.4536 1.6871L10.4536 1.68647L10.4537 1.68583L10.4538 1.68519L10.4539 1.68456L10.4539 1.68392L10.454 1.68328L10.4541 1.68265L10.4542 1.68201L10.4543 1.68137L10.4543 1.68074L10.4544 1.6801L10.4545 1.67946L10.4546 1.67883L10.4547 1.67819L10.4547 1.67755L10.4548 1.67692L10.4549 1.67628L10.455 1.67564L10.455 1.67501L10.4551 1.67437L10.4552 1.67374L10.4553 1.6731L10.4554 1.67246L10.4554 1.67183L10.4555 1.67119L10.4556 1.67055L10.4557 1.66992L10.4557 1.66928L10.4558 1.66865L10.4559 1.66801L10.456 1.66737L10.4561 1.66674L10.4561 1.6661L10.4562 1.66547L10.4563 1.66483L10.4564 1.66419L10.4564 1.66356L10.4565 1.66292L10.4566 1.66229L10.4567 1.66165L10.4568 1.66101L10.4568 1.66038L10.4569 1.65974L10.457 1.65911L10.4571 1.65847L10.4571 1.65783L10.4572 1.6572L10.4573 1.65656L10.4574 1.65593L10.4575 1.65529L10.4575 1.65466L10.4576 1.65402L10.4577 1.65339L10.4578 1.65275L10.4578 1.65211L10.4579 1.65148L10.458 1.65084L10.4581 1.65021L10.4582 1.64957L10.4582 1.64894L10.4583 1.6483L10.4584 1.64767L10.4585 1.64703L10.4585 1.64639L10.4586 1.64576L10.4587 1.64512L10.4588 1.64449L10.4589 1.64385L10.4589 1.64322L10.459 1.64258L10.4591 1.64195L10.4592 1.64131L10.4592 1.64068L10.4593 1.64004L10.4594 1.63941L10.4595 1.63877L10.4596 1.63814L10.4596 1.6375L10.4597 1.63687L10.4598 1.63623L10.4599 1.6356L10.4599 1.63496L10.46 1.63433L10.4601 1.63369L10.4602 1.63306L10.4603 1.63242L10.4603 1.63179L10.4604 1.63115L10.4605 1.63052L10.4606 1.62988L10.4606 1.62925L10.4607 1.62861L10.4608 1.62798L10.4609 1.62734L10.461 1.62671L10.461 1.62607L10.4611 1.62544L10.4612 1.6248L10.4613 1.62417L10.4613 1.62353L10.4614 1.6229L10.4615 1.62226L10.4616 1.62163L10.4617 1.62099L10.4617 1.62036L10.4618 1.61972L10.4619 1.61909L10.462 1.61846L10.462 1.61782L10.4621 1.61719L10.4622 1.61655L10.4623 1.61592L10.4624 1.61528L10.4624 1.61465L10.4625 1.61401L10.4626 1.61338L10.4627 1.61274L10.4627 1.61211L10.4628 1.61147L10.4629 1.61084L10.463 1.61021L10.4631 1.60957L10.4631 1.60894L10.4632 1.6083L10.4633 1.60767L10.4634 1.60703L10.4634 1.6064L10.4635 1.60576L10.4636 1.60513L10.4637 1.6045L10.4638 1.60386L10.4638 1.60323L10.4639 1.60259L10.464 1.60196L10.4641 1.60132L10.4641 1.60069L10.4642 1.60006L10.4643 1.59942L10.4644 1.59879L10.4645 1.59815L10.4645 1.59752L10.4646 1.59688L10.4647 1.59625L10.4648 1.59562L10.4648 1.59498L10.4649 1.59435L10.465 1.59371L10.4651 1.59308L10.4652 1.59244L10.4652 1.59181L10.4653 1.59118L10.4654 1.59054L10.4655 1.58991L10.4655 1.58927L10.4656 1.58864L10.4657 1.588L10.4658 1.58737L10.4659 1.58674L10.4659 1.5861L10.466 1.58547L10.4661 1.58483L10.4662 1.5842L10.4662 1.58357L10.4663 1.58293L10.4664 1.5823L10.4665 1.58166L10.4666 1.58103L10.4666 1.58039L10.4667 1.57976L10.4668 1.57913L10.4669 1.57849L10.4669 1.57786L10.467 1.57722L10.4671 1.57659L10.4672 1.57596L10.4673 1.57532L10.4673 1.57469L10.4674 1.57405L10.4675 1.57342L10.4676 1.57278L10.4676 1.57215L10.4677 1.57152L10.4678 1.57088L10.4679 1.57025L10.468 1.56961L10.468 1.56898L10.4681 1.56835L10.4682 1.56771L10.4683 1.56708L10.4683 1.56644L10.4684 1.56581L10.4685 1.56518L10.4686 1.56454L10.4687 1.56391L10.4687 1.56327L10.4688 1.56264L10.4689 1.56201L10.469 1.56137L10.469 1.56074L10.4691 1.5601L10.4692 1.55947L10.4693 1.55884L10.4694 1.5582L10.4694 1.55757L10.4695 1.55693L10.4696 1.5563L10.4697 1.55567L10.4697 1.55503L10.4698 1.5544L10.4699 1.55376L10.47 1.55313L10.4701 1.55249L10.4701 1.55186L10.4702 1.55123L10.4703 1.55059L10.4704 1.54996L10.4704 1.54932L10.4705 1.54869L10.4706 1.54806L10.4707 1.54742L10.4708 1.54679L10.4708 1.54615L10.4709 1.54552L10.471 1.54489L10.4711 1.54425L10.4711 1.54362L10.4712 1.54298L10.4713 1.54235L10.4714 1.54171L10.4715 1.54108L10.4715 1.54045L10.4716 1.53981L10.4717 1.53918L10.4718 1.53854L10.4718 1.53791L10.4719 1.53728L10.472 1.53664L10.4721 1.53601L10.4722 1.53537L10.4722 1.53474L10.4723 1.5341L10.4724 1.53347L10.4725 1.53284L10.4725 1.5322L10.4726 1.53157L10.4727 1.53093L10.4728 1.5303L10.4729 1.52967L10.4729 1.52903L10.473 1.5284L10.4731 1.52776L10.4732 1.52713L10.4732 1.52649L10.4733 1.52586L10.4734 1.52523L10.4735 1.52459L10.4736 1.52396L10.4736 1.52332L10.4737 1.52269L10.4738 1.52205L10.4739 1.52142L10.4739 1.52079L10.474 1.52015L10.4741 1.51952L10.4742 1.51888L10.4743 1.51825L10.4743 1.51761L10.4744 1.51698L10.4745 1.51634L10.4746 1.51571L10.4746 1.51508L10.4747 1.51444L10.4748 1.51381L10.4749 1.51317L10.475 1.51254L10.475 1.5119L10.4751 1.51127L10.4752 1.51063L10.4753 1.51L10.4753 1.50936L10.4754 1.50873L10.4755 1.5081L10.4756 1.50746L10.4757 1.50683L10.4757 1.50619L10.4758 1.50556L10.4759 1.50492L10.476 1.50429L10.476 1.50365L10.4761 1.50302L10.4762 1.50238L10.4763 1.50175L10.4764 1.50111L10.4764 1.50048L10.4765 1.49985L10.4766 1.49921L10.4767 1.49858L10.4767 1.49794L10.4768 1.49731L10.4769 1.49667L10.477 1.49604L10.4771 1.4954L10.4771 1.49477L10.4772 1.49413L10.4773 1.4935L10.4774 1.49286L10.4774 1.49223L10.4775 1.49159L10.4776 1.49096L10.4777 1.49032L10.4778 1.48969L10.4778 1.48905L10.4779 1.48842L10.478 1.48778L10.4781 1.48715L10.4781 1.48651L10.4782 1.48588L10.4783 1.48524L10.4784 1.48461L10.4785 1.48397L10.4785 1.48334L10.4786 1.4827L10.4787 1.48207L10.4788 1.48143L10.4788 1.4808L10.4789 1.48016L10.479 1.47953L10.4791 1.47889L10.4792 1.47825L10.4792 1.47762L10.4793 1.47698L10.4794 1.47635L10.4795 1.47571L10.4795 1.47508L10.4796 1.47444L10.4797 1.47381L10.4798 1.47317L10.4799 1.47254L10.4799 1.4719L10.48 1.47126L10.4801 1.47063L10.4802 1.46999L10.4802 1.46936L10.4803 1.46872L10.4804 1.46809L10.4805 1.46745L10.4806 1.46682L10.4806 1.46618L10.4807 1.46554L10.4808 1.46491L10.4809 1.46427L10.4809 1.46364L10.481 1.463L10.4811 1.46237L10.4812 1.46173L10.4813 1.46109L10.4813 1.46046L10.4814 1.45982L10.4815 1.45919L10.4816 1.45855L10.4816 1.45791L10.4817 1.45728L10.4818 1.45664L10.4819 1.45601L10.482 1.45537L10.482 1.45473L10.4821 1.4541L10.4822 1.45346L10.4823 1.45283L10.4823 1.45219L10.4824 1.45155L10.4825 1.45092L10.4826 1.45028L10.4827 1.44964L10.4827 1.44901L10.4828 1.44837L10.4829 1.44773L10.483 1.4471L10.4831 1.44646L10.4831 1.44583L10.4832 1.44519L10.4833 1.44455L10.4834 1.44392L10.4834 1.44328L10.4835 1.44264L10.4836 1.44201L10.4837 1.44137L10.4838 1.44073L10.4838 1.4401L10.4839 1.43946L10.484 1.43882L10.4841 1.43819L10.4841 1.43755L10.4842 1.43691L10.4843 1.43628L10.4844 1.43564L10.4845 1.435L10.4845 1.43436L10.4846 1.43373L10.4847 1.43309L10.4848 1.43245L10.4848 1.43182L10.4849 1.43118L10.485 1.43054L10.4851 1.42991L10.4852 1.42927L10.4852 1.42863L10.4853 1.42799L10.4854 1.42736L10.4855 1.42672L10.4855 1.42608L10.4856 1.42544L10.4857 1.42481L10.4858 1.42417L10.4859 1.42353L10.4859 1.42289L10.486 1.42226L10.4861 1.42162L10.4862 1.42098L10.4863 1.42034L10.4863 1.41971L10.4864 1.41907L10.4865 1.41843L10.4866 1.41779L10.4866 1.41716L10.4867 1.41652L10.4868 1.41588L10.4869 1.41524L10.487 1.4146L10.487 1.41397L10.4871 1.41333L10.4872 1.41269L10.4873 1.41205L10.4873 1.41141L10.4874 1.41078L10.4875 1.41014L10.4876 1.4095L10.4877 1.40886L10.4877 1.40822L10.4878 1.40758L10.4879 1.40695L10.488 1.40631L10.488 1.40567L10.4881 1.40503L10.4882 1.40439L10.4883 1.40375L10.4884 1.40312L10.4884 1.40248L10.4885 1.40184L10.4886 1.4012L10.4887 1.40056L10.4888 1.39992L10.4888 1.39928L10.4889 1.39864L10.4898 1.39875L10.4892 1.38932C10.4726 1.13502 10.3983 0.906796 10.2376 0.721018L10.2375 0.720919C10.1296 0.596819 9.99837 0.518168 9.85794 0.463181L9.85854 0.461671L9.8458 0.46011L9.84524 0.460042L9.84468 0.459973L9.84412 0.459905L9.84356 0.459836L9.843 0.459768L9.84244 0.459699L9.84189 0.459631L9.84133 0.459562L9.84077 0.459494L9.84021 0.459426L9.83965 0.459357L9.83909 0.459289L9.83854 0.45922L9.83798 0.459152L9.83742 0.459083L9.83686 0.459015L9.8363 0.458947L9.83575 0.458878L9.83519 0.45881L9.83463 0.458741L9.83407 0.458673L9.83351 0.458605L9.83296 0.458536L9.8324 0.458468L9.83184 0.4584L9.83128 0.458331L9.83072 0.458263L9.83017 0.458194L9.82961 0.458126L9.82905 0.458058L9.82849 0.457989L9.82793 0.457921L9.82738 0.457853L9.82682 0.457784L9.82626 0.457716L9.8257 0.457648L9.82515 0.457579L9.82459 0.457511L9.82403 0.457443L9.82347 0.457374L9.82292 0.457306L9.82236 0.457238L9.8218 0.457169L9.82124 0.457101L9.82069 0.457033L9.82013 0.456965L9.81957 0.456896L9.81902 0.456828L9.81846 0.45676L9.8179 0.456691L9.81734 0.456623L9.81679 0.456555L9.81623 0.456486L9.81567 0.456418L9.81512 0.45635L9.81456 0.456282L9.814 0.456213L9.81344 0.456145L9.81289 0.456077L9.81233 0.456009L9.81177 0.45594L9.81122 0.455872L9.81066 0.455804L9.8101 0.455736L9.80955 0.455667L9.80899 0.455599L9.80843 0.455531L9.80788 0.455463L9.80732 0.455394L9.80676 0.455326L9.80621 0.455258L9.80565 0.45519L9.80509 0.455122L9.80454 0.455053L9.80398 0.454985L9.80342 0.454917L9.80287 0.454849L9.80231 0.454781L9.80175 0.454712L9.8012 0.454644L9.80064 0.454576L9.80008 0.454508L9.79953 0.45444L9.79897 0.454371L9.79841 0.454303L9.79786 0.454235L9.7973 0.454167L9.79675 0.454099L9.79619 0.45403L9.79563 0.453962L9.79508 0.453894L9.79452 0.453826L9.79396 0.453758L9.79341 0.45369L9.79285 0.453621L9.7923 0.453553L9.79174 0.453485L9.79118 0.453417L9.79063 0.453349L9.79007 0.453281L9.78952 0.453213L9.78896 0.453144L9.7884 0.453076L9.78785 0.453008L9.78729 0.45294L9.78674 0.452872L9.78618 0.452804L9.78562 0.452736L9.78507 0.452667L9.78451 0.452599L9.78396 0.452531L9.7834 0.452463L9.78284 0.452395L9.78229 0.452327L9.78173 0.452259L9.78118 0.452191L9.78062 0.452123L9.78007 0.452054L9.77951 0.451986L9.77895 0.451918L9.7784 0.45185L9.77784 0.451782L9.77729 0.451714L9.77673 0.451646L9.77618 0.451578L9.77562 0.45151L9.77507 0.451442L9.77451 0.451373L9.77395 0.451305L9.7734 0.451237L9.77284 0.451169L9.77229 0.451101L9.77173 0.451033L9.77118 0.450965L9.77062 0.450897L9.77007 0.450829L9.76951 0.450761L9.76896 0.450693L9.7684 0.450625L9.76784 0.450557L9.76729 0.450489L9.76673 0.45042L9.76618 0.450352L9.76562 0.450284L9.76507 0.450216L9.76451 0.450148L9.76396 0.45008L9.7634 0.450012L9.76285 0.449944L9.76229 0.449876L9.76174 0.449808L9.76118 0.44974L9.76063 0.449672L9.76007 0.449604L9.75952 0.449536L9.75896 0.449468L9.75841 0.4494L9.75785 0.449332L9.7573 0.449264L9.75674 0.449196L9.75619 0.449128L9.75563 0.44906L9.75508 0.448992L9.75452 0.448924L9.75397 0.448856L9.75341 0.448788L9.75286 0.44872L9.7523 0.448652L9.75175 0.448584L9.75119 0.448515L9.75064 0.448448L9.75008 0.448379L9.74953 0.448311L9.74897 0.448243L9.74842 0.448175L9.74786 0.448107L9.74731 0.448039L9.74675 0.447971L9.7462 0.447903L9.74564 0.447835L9.74509 0.447767L9.74453 0.447699L9.74398 0.447631L9.74342 0.447563L9.74287 0.447495L9.74231 0.447427L9.74176 0.447359L9.7412 0.447291L9.74065 0.447223L9.74009 0.447155L9.73954 0.447087L9.73898 0.44702L9.73843 0.446951L9.73787 0.446883L9.73732 0.446816L9.73676 0.446748L9.73621 0.44668L9.73566 0.446612L9.7351 0.446544L9.73455 0.446476L9.73399 0.446408L9.73344 0.44634L9.73288 0.446272L9.73233 0.446204L9.73177 0.446136L9.73122 0.446068L9.73066 0.446L9.73011 0.445932L9.72955 0.445864L9.729 0.445796L9.72845 0.445728L9.72789 0.44566L9.72734 0.445592L9.72678 0.445524L9.72623 0.445456L9.72567 0.445388L9.72512 0.44532L9.72456 0.445252L9.72401 0.445184L9.72345 0.445116L9.7229 0.445048L9.72234 0.44498L9.72179 0.444912L9.72124 0.444844L9.72068 0.444776L9.72013 0.444708L9.71957 0.44464L9.71902 0.444572L9.71846 0.444504L9.71791 0.444437L9.71735 0.444369L9.7168 0.444301L9.71624 0.444233L9.71569 0.444165L9.71514 0.444097L9.71458 0.444029L9.71403 0.443961L9.71347 0.443893L9.71292 0.443825L9.71236 0.443757L9.71181 0.443689L9.71125 0.443621L9.7107 0.443553L9.71015 0.443485L9.70959 0.443417L9.70904 0.443349L9.70848 0.443281L9.70793 0.443213L9.70737 0.443145L9.70682 0.443077L9.70626 0.443009L9.70571 0.442941L9.70515 0.442873L9.7046 0.442806L9.70405 0.442738L9.70349 0.44267L9.70294 0.442602L9.70238 0.442534L9.70183 0.442466L9.70127 0.442398L9.70072 0.44233L9.70016 0.442262L9.69961 0.442194L9.69906 0.442126L9.6985 0.442058L9.69795 0.44199L9.69739 0.441922L9.69684 0.441854L9.69628 0.441786L9.69573 0.441718L9.69517 0.44165L9.69462 0.441582L9.69406 0.441514L9.69351 0.441446L9.69296 0.441378L9.6924 0.44131L9.69185 0.441242L9.69129 0.441175L9.69074 0.441107L9.69018 0.441039L9.68963 0.440971L9.68907 0.440903L9.68852 0.440835L9.68797 0.440767L9.68741 0.440699L9.68686 0.440631L9.6863 0.440563L9.68575 0.440495L9.68519 0.440427L9.68464 0.440359L9.68408 0.440291L9.68353 0.440223L9.68297 0.440155L9.68242 0.440087L9.68186 0.440019L9.68131 0.439951L9.68076 0.439883L9.6802 0.439815L9.67965 0.439747L9.67909 0.439679L9.67854 0.439611L9.67798 0.439543L9.67743 0.439475L9.67687 0.439407L9.67632 0.439339L9.67576 0.439271L9.67521 0.439203L9.67466 0.439136L9.6741 0.439068L9.67355 0.439L9.67299 0.438932L9.67244 0.438864L9.67188 0.438796L9.67133 0.438728L9.67077 0.43866L9.67022 0.438592L9.66966 0.438524L9.66911 0.438456L9.66855 0.438388L9.668 0.43832L9.66744 0.438252L9.66689 0.438184L9.66633 0.438116L9.66578 0.438048L9.66522 0.43798L9.66467 0.437912L9.66411 0.437844L9.66356 0.437776L9.66301 0.437708L9.66245 0.43764L9.6619 0.437572L9.66134 0.437504L9.66079 0.437436L9.66023 0.437368L9.65968 0.4373L9.65912 0.437232L9.65857 0.437164L9.65801 0.437096L9.65746 0.437028L9.6569 0.43696L9.65635 0.436892L9.65579 0.436824L9.65524 0.436756L9.65468 0.436688L9.65413 0.43662L9.65357 0.436552L9.65302 0.436484L9.65246 0.436416L9.65191 0.436348L9.65135 0.43628L9.6508 0.436212L9.65024 0.436143L9.64969 0.436075L9.64913 0.436007L9.64858 0.435939L9.64802 0.435871L9.64747 0.435803L9.64691 0.435735L9.64636 0.435667L9.6458 0.435599L9.64525 0.435531L9.64469 0.435463L9.64414 0.435395L9.64358 0.435327L9.64302 0.435259L9.64247 0.435191L9.64191 0.435123L9.64136 0.435055L9.6408 0.434987L9.64025 0.434919L9.63969 0.434851L9.63914 0.434783L9.63858 0.434715L9.63803 0.434646L9.63747 0.434578L9.63692 0.43451L9.63636 0.434442L9.63581 0.434374L9.63525 0.434306L9.63469 0.434238L9.63414 0.43417L9.63358 0.434102L9.63303 0.434034L9.63247 0.433966L9.63192 0.433898L9.63136 0.43383L9.63081 0.433761L9.63025 0.433693L9.62969 0.433625L9.62914 0.433557L9.62858 0.433489L9.62803 0.433421L9.62747 0.433353L9.62692 0.433285L9.62636 0.433217L9.6258 0.433149L9.62525 0.43308L9.62469 0.433012L9.62414 0.432944L9.62358 0.432876L9.62303 0.432808L9.62247 0.43274L9.62191 0.432672L9.62136 0.432604L9.6208 0.432535L9.62025 0.432467L9.61969 0.432399L9.61913 0.432331L9.61858 0.432263L9.61802 0.432195L9.61747 0.432127L9.61691 0.432059L9.61635 0.43199L9.6158 0.431922L9.61524 0.431854L9.61469 0.431786L9.61413 0.431718L9.61357 0.43165L9.61302 0.431581L9.61246 0.431513L9.61191 0.431445L9.61135 0.431377L9.61079 0.431309L9.61024 0.431241L9.60968 0.431172L9.60912 0.431104L9.60857 0.431036L9.60801 0.430968L9.60746 0.4309L9.6069 0.430831L9.60634 0.430763L9.60579 0.430695L9.60523 0.430627L9.60467 0.430559L9.60412 0.43049L9.60356 0.430422L9.603 0.430354L9.60245 0.430286L9.60189 0.430218L9.60133 0.430149L9.60078 0.430081L9.60022 0.430013L9.59966 0.429945L9.59911 0.429877L9.59855 0.429808L9.59799 0.42974L9.59744 0.429672L9.59688 0.429604L9.59632 0.429535L9.59577 0.429467L9.59521 0.429399L9.59465 0.429331L9.5941 0.429262L9.59354 0.429194L9.59298 0.429126L9.59242 0.429058L9.59187 0.428989L9.59131 0.428921L9.59075 0.428853L9.5902 0.428784L9.58964 0.428716L9.58908 0.428648L9.58852 0.42858L9.58797 0.428511L9.58741 0.428443L9.58685 0.428375L9.5863 0.428306L9.58574 0.428238L9.58518 0.42817L9.58462 0.428101L9.58407 0.428033L9.58351 0.427965L9.58295 0.427897L9.58239 0.427828L9.58184 0.42776L9.58128 0.427692L9.58072 0.427623L9.58016 0.427555L9.57961 0.427486L9.57905 0.427418L9.57849 0.42735L9.57793 0.427281L9.57737 0.427213L9.57682 0.427145L9.57626 0.427076L9.5757 0.427008L9.57514 0.42694L9.57459 0.426871L9.57403 0.426803L9.57347 0.426735L9.57291 0.426666L9.57235 0.426598L9.5718 0.426529L9.57124 0.426461L9.57068 0.426393L9.57012 0.426324L9.56956 0.426256L9.56901 0.426187L9.56845 0.426119L9.56789 0.42605L9.56733 0.425982L9.56677 0.425914L9.56621 0.425845L9.56566 0.425777L9.5651 0.425708L9.56454 0.42564L9.56398 0.425571L9.56342 0.425503L9.56286 0.425435L9.5623 0.425366L9.56175 0.425298L9.56119 0.425229L9.56138 0.423642L9.54874 0.425265C9.30372 0.456715 9.10168 0.586074 8.92037 0.761764M10.4479 1.73359L8.92037 0.761764M6.3161 5.52825L6.31159 5.47846M6.3161 5.52825C6.31612 5.52825 6.31614 5.52825 6.31616 5.52825L6.31159 5.47846M6.3161 5.52825C6.11684 5.54656 5.91791 5.56706 5.71896 5.58756C5.57939 5.60194 5.43982 5.61632 5.30011 5.62995L5.29997 5.62996C5.18727 5.64064 5.09192 5.59352 5.03536 5.51053C4.97948 5.42855 4.96454 5.31658 4.99891 5.20027L4.99895 5.20014C5.05535 5.01118 5.11277 4.82278 5.17013 4.63455L5.17016 4.63448C5.22754 4.44617 5.28488 4.25803 5.3412 4.06937M6.31159 5.47846C6.11223 5.49677 5.9126 5.51734 5.71326 5.53788C5.57371 5.55226 5.43431 5.56662 5.29525 5.58018C5.10527 5.59819 4.98516 5.42325 5.04686 5.21444C5.10322 5.02562 5.1606 4.83734 5.21798 4.64905C5.27536 4.46077 5.33274 4.27249 5.38911 4.08367M5.3412 4.06937C5.34118 4.06943 5.34116 4.06949 5.34114 4.06955L5.38911 4.08367M5.3412 4.06937L5.38911 4.08367M5.3412 4.06937C5.37128 3.96729 5.42432 3.8894 5.49871 3.82279L5.49877 3.82273C6.1562 3.23597 6.81378 2.64777 7.47139 2.05955C7.80011 1.76551 8.12883 1.47147 8.45755 1.17761M5.38911 4.08367C5.41633 3.9912 5.46392 3.92106 5.53207 3.86004C6.18947 3.27329 6.84705 2.68509 7.50463 2.0969C7.83338 1.80283 8.16214 1.50877 8.49087 1.21488M8.45755 1.17761C8.45754 1.17762 8.45753 1.17763 8.45752 1.17763L8.49087 1.21488M8.45755 1.17761C8.50692 1.1334 8.55645 1.08992 8.60585 1.04655C8.71225 0.953147 8.81805 0.860271 8.92037 0.761764M8.45755 1.17761L8.49087 1.21488M8.49087 1.21488L8.92037 0.761764M9.04621 2.40194L9.04622 2.40195C9.05537 2.39407 9.06057 2.3885 9.06348 2.38455C9.06462 2.383 9.06522 2.38195 9.06552 2.38135C9.06512 2.37929 9.06306 2.37248 9.05298 2.3582L9.05288 2.35806C8.92597 2.17696 8.80211 1.99459 8.68008 1.80913L8.68002 1.80905C8.67642 1.80355 8.67348 1.79966 8.6712 1.79695L9.04621 2.40194ZM9.04621 2.40194L9.04552 2.40256C8.12927 3.22158 7.21445 4.04077 6.29965 4.85994C6.29492 4.86383 6.2903 4.86795 6.28649 4.87135L6.28555 4.87218C6.28095 4.87628 6.27735 4.87944 6.27397 4.88214C6.27109 4.88444 6.26913 4.88576 6.26791 4.88649C6.07729 4.90965 5.8858 4.92998 5.69489 4.95026C5.68987 4.95079 5.68485 4.95132 5.67984 4.95185C5.74511 4.73527 5.81041 4.51899 5.8783 4.30308L5.87844 4.30262C5.87865 4.30192 5.87998 4.29862 5.88683 4.29168C5.89011 4.28836 5.89398 4.28486 5.89878 4.28069C5.9001 4.27955 5.9016 4.27826 5.9032 4.27688C5.90677 4.27381 5.91084 4.27031 5.91443 4.2671L5.91449 4.26704C6.37057 3.85719 6.82726 3.44824 7.284 3.03925L7.28406 3.03919C7.74074 2.63025 8.19746 2.22128 8.65357 1.8114L9.04621 2.40194ZM9.10229 1.34102C9.07004 1.36845 9.06318 1.38908 9.08907 1.42529M9.10229 1.34102L9.13461 1.37917L9.08907 1.42529M9.10229 1.34102C9.14099 1.30823 9.17853 1.27408 9.21599 1.24001C9.26589 1.19461 9.31563 1.14936 9.36778 1.10763L9.12479 1.38848C9.12581 1.39034 9.12737 1.39289 9.12974 1.3962L9.13018 1.39681L9.13017 1.39682C9.22977 1.54057 9.32838 1.68614 9.42665 1.8312C9.45861 1.87838 9.49054 1.9255 9.52245 1.97249C9.57335 1.92528 9.62566 1.87826 9.67773 1.83145C9.71295 1.7998 9.74806 1.76824 9.78255 1.73679L9.78289 1.73648C9.84955 1.67679 9.88923 1.59215 9.90717 1.49239C9.91921 1.32405 9.87119 1.19964 9.75728 1.12067L9.75722 1.12063C9.69613 1.07815 9.63656 1.06206 9.57921 1.06648C9.52131 1.07094 9.46076 1.0967 9.39924 1.1465L9.39902 1.14667C9.3547 1.18214 9.31189 1.22045 9.26826 1.26006C9.26211 1.26565 9.25593 1.27126 9.24973 1.2769C9.21233 1.31093 9.17409 1.34572 9.13468 1.37911L9.10229 1.34102ZM9.08907 1.42529C9.1885 1.56881 9.2869 1.71406 9.38514 1.85906M9.08907 1.42529L9.38514 1.85906M9.553 2.01235C9.60485 1.96419 9.65765 1.91673 9.71056 1.86918C9.74582 1.83749 9.78113 1.80575 9.81624 1.77373L9.553 2.01235ZM9.553 2.01235L9.52439 1.98155C9.52337 1.98131 9.52226 1.98111 9.52106 1.98099C9.51958 1.98083 9.51824 1.98081 9.51703 1.98088C9.51274 1.9811 9.51026 1.98236 9.51038 1.9823C9.51096 1.982 9.51373 1.98037 9.51934 1.97538L9.553 2.01235ZM9.553 2.01235C9.5238 2.0385 9.50652 2.03804 9.48327 2.0038M9.553 2.01235L9.48327 2.0038M9.38514 1.85906C9.41786 1.90736 9.45056 1.95563 9.48327 2.0038M9.38514 1.85906L9.48327 2.0038M9.09383 2.32936C8.9672 2.14867 8.84361 1.9667 8.72185 1.78165L9.09383 2.32936Z" fill="white" stroke="white" stroke-width="0.1"/>
</svg>
